<svg aria-hidden="true" style="position: absolute; width: 0; height: 0; overflow: hidden;" version="1.1" xmlns="http://www.w3.org/2000/svg" xmlns:xlink="http://www.w3.org/1999/xlink">
<defs>
<symbol id="icon-el-poblado-logo" viewBox="0 0 32 32">
<path fill="#fff" style="fill: var(--color1, #fff)" d="M14.7 2.74c-0.86 0.862-1.29 1.31-1.25 1.3 0.035-0.008 0.238-0.042 0.45-0.080l0.387-0.067 0.873-0.862 0.873-0.86 1.755 1.757c0.965 0.968 3.325 3.34 5.245 5.27l3.492 3.513-0.085-0.25c-0.090-0.265-0.245-0.665-0.343-0.877-0.050-0.107-0.832-0.905-5.045-5.138-2.742-2.752-5-5.010-5.012-5.015-0.015-0.002-0.617 0.587-1.34 1.31z"></path>
<path fill="#fff" style="fill: var(--color1, #fff)" d="M15.113 4.168c-3.717 0.303-7.027 2.258-9.043 5.345-0.478 0.73-0.885 1.54-1.207 2.4l-0.065 0.175 0.855-0.85 0.23-0.45c0.38-0.738 0.815-1.398 1.34-2.035 0.332-0.405 1.125-1.197 1.53-1.53 1.195-0.985 2.603-1.73 4.072-2.155 0.715-0.207 1.495-0.353 2.25-0.418 0.4-0.035 1.445-0.035 1.85 0 0.325 0.027 1.137 0.138 1.218 0.165 0.025 0.010-0.085-0.115-0.242-0.275l-0.29-0.29-0.285-0.040c-0.277-0.037-1.893-0.070-2.213-0.043z"></path>
<path fill="#fff" style="fill: var(--color1, #fff)" d="M20.337 5.225l0.425 0.428 0.45 0.23c0.738 0.38 1.398 0.815 2.035 1.34 0.405 0.332 1.198 1.125 1.53 1.53 0.985 1.195 1.73 2.603 2.155 4.072 0.207 0.715 0.352 1.495 0.418 2.25 0.035 0.4 0.035 1.445 0 1.85-0.027 0.325-0.137 1.137-0.165 1.218-0.010 0.025 0.115-0.085 0.275-0.242l0.29-0.29 0.043-0.31c0.035-0.25 0.043-0.51 0.043-1.3 0-1.067-0.020-1.338-0.172-2.165-0.435-2.35-1.582-4.53-3.275-6.223-1.218-1.218-2.642-2.13-4.3-2.75l-0.175-0.065 0.425 0.428z"></path>
<path fill="#fff" style="fill: var(--color1, #fff)" d="M12.387 5.585c-0.318 0.112-0.592 0.223-0.805 0.317-0.107 0.050-0.9 0.827-5.138 5.045-2.752 2.742-5.010 5-5.015 5.013-0.002 0.015 0.587 0.617 1.31 1.34 0.863 0.86 1.31 1.29 1.3 1.25-0.008-0.035-0.042-0.238-0.080-0.45l-0.067-0.387-0.862-0.872-0.86-0.873 1.757-1.755c0.968-0.965 3.34-3.325 5.27-5.245 1.932-1.92 3.508-3.492 3.5-3.49-0.005 0-0.145 0.048-0.31 0.107z"></path>
<path fill="#fff" style="fill: var(--color1, #fff)" d="M14.5 10.912v1.088h1.45v-0.25h-1.125v-0.8h1.050v-0.25h-1.050v-0.625h1.1v-0.25h-1.425v1.088z"></path>
<path fill="#fff" style="fill: var(--color1, #fff)" d="M16.4 10.912v1.088h1.4v-0.25h-1.075v-1.925h-0.325v1.088z"></path>
<path fill="#fff" style="fill: var(--color1, #fff)" d="M27.96 13.45c0.008 0.035 0.043 0.238 0.080 0.45l0.067 0.387 0.863 0.873 0.86 0.873-1.758 1.755c-0.968 0.965-3.34 3.325-5.27 5.245l-3.512 3.492 0.25-0.085c0.265-0.090 0.665-0.245 0.878-0.343 0.108-0.050 0.905-0.832 5.137-5.045 2.753-2.742 5.010-5 5.015-5.012 0.003-0.015-0.587-0.617-1.31-1.34-0.863-0.86-1.31-1.29-1.3-1.25z"></path>
<path fill="#fff" style="fill: var(--color1, #fff)" d="M4.53 14.107l-0.28 0.283-0.043 0.31c-0.035 0.25-0.043 0.51-0.043 1.3 0 1.067 0.020 1.337 0.173 2.165 0.435 2.35 1.583 4.53 3.275 6.223 1.217 1.218 2.643 2.13 4.3 2.75l0.175 0.065-0.85-0.855-0.45-0.23c-1.090-0.563-1.928-1.177-2.828-2.078-0.935-0.935-1.55-1.785-2.13-2.94-0.607-1.207-0.963-2.38-1.13-3.712-0.13-1.025-0.093-2.422 0.088-3.375 0.018-0.098 0.030-0.178 0.027-0.18s-0.133 0.12-0.285 0.275z"></path>
<path fill="#fff" style="fill: var(--color1, #fff)" d="M9.238 14.322c-0.465 0.133-0.818 0.52-0.95 1.037-0.127 0.505-0.040 1.17 0.203 1.535 0.277 0.42 0.648 0.605 1.2 0.605 0.455 0 0.715-0.1 1-0.385 0.313-0.313 0.435-0.66 0.435-1.235 0-0.557-0.125-0.91-0.435-1.22-0.188-0.185-0.357-0.285-0.592-0.348-0.19-0.053-0.668-0.045-0.86 0.010zM10.080 14.723c0.38 0.185 0.582 0.592 0.58 1.178 0 0.568-0.205 0.97-0.58 1.153-0.18 0.087-0.54 0.098-0.742 0.020-0.19-0.070-0.4-0.275-0.498-0.48-0.188-0.398-0.188-1.012 0-1.41 0.092-0.195 0.307-0.41 0.485-0.477 0.193-0.078 0.58-0.068 0.755 0.018z"></path>
<path fill="#fff" style="fill: var(--color1, #fff)" d="M24.238 14.322c-0.465 0.133-0.817 0.52-0.95 1.037-0.128 0.505-0.040 1.17 0.203 1.535 0.277 0.42 0.648 0.605 1.2 0.605 0.455 0 0.715-0.1 1-0.385 0.313-0.313 0.435-0.66 0.435-1.235 0-0.557-0.125-0.91-0.435-1.22-0.188-0.185-0.358-0.285-0.593-0.348-0.19-0.053-0.668-0.045-0.86 0.010zM25.080 14.723c0.38 0.185 0.582 0.592 0.58 1.178 0 0.568-0.205 0.97-0.58 1.153-0.18 0.087-0.54 0.098-0.742 0.020-0.288-0.108-0.523-0.418-0.602-0.793-0.075-0.355-0.030-0.807 0.105-1.098 0.093-0.195 0.308-0.41 0.485-0.477 0.192-0.078 0.58-0.068 0.755 0.018z"></path>
<path fill="#fff" style="fill: var(--color1, #fff)" d="M5.825 15.885v1.565h0.45v-1.245l0.457-0.010c0.4-0.010 0.473-0.017 0.605-0.067 0.213-0.082 0.41-0.287 0.475-0.49 0.065-0.205 0.065-0.545 0-0.75-0.065-0.203-0.263-0.408-0.475-0.49-0.143-0.055-0.188-0.060-0.83-0.068l-0.683-0.008v1.563zM7.077 14.742c0.202 0.090 0.322 0.283 0.322 0.52 0 0.232-0.103 0.41-0.292 0.502-0.115 0.057-0.17 0.065-0.48 0.078l-0.353 0.015v-1.19l0.348 0.015c0.265 0.010 0.372 0.025 0.455 0.060z"></path>
<path fill="#fff" style="fill: var(--color1, #fff)" d="M11.775 15.885v1.565h0.7c0.887 0 1.047-0.032 1.29-0.255 0.135-0.125 0.193-0.23 0.235-0.43 0.082-0.4-0.102-0.783-0.453-0.938l-0.107-0.050 0.072-0.027c0.242-0.092 0.365-0.305 0.365-0.633 0.002-0.363-0.15-0.592-0.475-0.723-0.133-0.053-0.18-0.057-0.883-0.065l-0.745-0.008v1.563zM13.127 14.725c0.2 0.057 0.305 0.205 0.305 0.425s-0.105 0.367-0.305 0.425c-0.050 0.015-0.273 0.035-0.495 0.043l-0.408 0.015v-0.965l0.408 0.015c0.223 0.008 0.445 0.027 0.495 0.043zM13.21 16.030c0.352 0.113 0.46 0.625 0.19 0.895-0.127 0.128-0.23 0.15-0.73 0.168l-0.445 0.015v-1.14l0.445 0.015c0.245 0.008 0.488 0.030 0.54 0.047z"></path>
<path fill="#fff" style="fill: var(--color1, #fff)" d="M14.7 15.887v1.563h1.975v-0.35h-1.525v-2.775h-0.45v1.563z"></path>
<path fill="#fff" style="fill: var(--color1, #fff)" d="M17.4 15.855c-0.32 0.843-0.587 1.547-0.595 1.563-0.008 0.025 0.047 0.032 0.227 0.032h0.235l0.095-0.27c0.052-0.148 0.117-0.328 0.142-0.4l0.050-0.13 0.688 0.005 0.688 0.008 0.14 0.392 0.14 0.395h0.235c0.215 0 0.235-0.005 0.218-0.045-0.008-0.023-0.275-0.725-0.593-1.563l-0.578-1.518h-0.51l-0.582 1.53zM18.52 15.563l0.27 0.725-0.27 0.008c-0.148 0.003-0.395 0.003-0.552 0l-0.285-0.008 0.13-0.35c0.070-0.193 0.195-0.53 0.275-0.748 0.080-0.22 0.15-0.387 0.155-0.375s0.13 0.348 0.277 0.748z"></path>
<path fill="#fff" style="fill: var(--color1, #fff)" d="M20.1 15.887v1.563h0.645c0.54 0 0.68-0.008 0.88-0.050 0.578-0.12 0.92-0.422 1.065-0.953 0.035-0.122 0.045-0.253 0.045-0.56s-0.010-0.438-0.045-0.56c-0.148-0.533-0.485-0.832-1.067-0.953-0.198-0.043-0.34-0.050-0.878-0.050h-0.645v1.563zM21.495 14.738c0.28 0.068 0.465 0.182 0.59 0.375 0.133 0.2 0.168 0.34 0.183 0.688 0.030 0.723-0.21 1.105-0.773 1.238-0.087 0.020-0.335 0.045-0.55 0.052l-0.395 0.017v-2.44l0.395 0.018c0.215 0.008 0.462 0.033 0.55 0.053z"></path>
<path fill="#fff" style="fill: var(--color1, #fff)" d="M5.56 19.54c0.090 0.265 0.245 0.665 0.343 0.878 0.050 0.108 0.832 0.905 5.045 5.137 2.742 2.753 5 5.010 5.013 5.015 0.015 0.003 0.617-0.587 1.34-1.31 0.86-0.863 1.29-1.31 1.25-1.3-0.035 0.008-0.238 0.043-0.45 0.080l-0.387 0.067-0.872 0.863-0.873 0.86-1.755-1.758c-0.965-0.968-3.325-3.34-5.245-5.27l-3.492-3.512 0.085 0.25z"></path>
<path fill="#fff" style="fill: var(--color1, #fff)" d="M26.76 20.355l-0.427 0.433-0.225 0.44c-0.367 0.72-0.805 1.383-1.33 2.020-0.332 0.405-1.125 1.198-1.53 1.53-1.195 0.985-2.602 1.73-4.072 2.155-0.715 0.207-1.495 0.352-2.25 0.418-0.4 0.035-1.445 0.035-1.85 0-0.325-0.027-1.137-0.137-1.217-0.165-0.025-0.010 0.085 0.115 0.242 0.275l0.29 0.29 0.31 0.043c0.25 0.035 0.51 0.043 1.3 0.043 1.067 0 1.337-0.020 2.165-0.172 2.35-0.435 4.53-1.582 6.223-3.275 1.218-1.215 2.122-2.633 2.747-4.295 0.035-0.093 0.060-0.168 0.058-0.168s-0.198 0.195-0.433 0.43z"></path>
<path fill="#fff" style="fill: var(--color1, #fff)" d="M18.495 20.473c-0.242 0.098-0.35 0.223-0.395 0.455-0.035 0.18 0.005 0.36 0.102 0.477 0.098 0.12 0.277 0.203 0.582 0.267 0.4 0.085 0.523 0.175 0.523 0.39 0 0.122-0.047 0.21-0.168 0.297-0.060 0.045-0.105 0.052-0.348 0.052-0.253 0-0.297-0.008-0.442-0.070-0.267-0.117-0.25-0.122-0.25 0.063v0.163l0.183 0.060c0.238 0.078 0.698 0.098 0.898 0.038 0.177-0.050 0.33-0.165 0.4-0.295 0.045-0.087 0.058-0.148 0.058-0.32 0-0.185-0.008-0.227-0.067-0.328-0.113-0.19-0.253-0.262-0.695-0.36-0.325-0.070-0.398-0.113-0.448-0.255-0.032-0.090-0.030-0.108 0.012-0.198 0.030-0.060 0.085-0.117 0.148-0.152 0.145-0.082 0.442-0.080 0.705 0.005 0.108 0.035 0.203 0.063 0.215 0.063 0.010 0 0.017-0.070 0.017-0.157v-0.16l-0.13-0.032c-0.073-0.017-0.277-0.035-0.457-0.040-0.275-0.010-0.343-0.003-0.442 0.038z"></path>
<path fill="#fff" style="fill: var(--color1, #fff)" d="M13.050 20.53c-0.015 0.032-0.205 0.523-0.422 1.090l-0.398 1.032 0.352-0.015 0.185-0.525h0.965l0.1 0.267 0.098 0.27h0.338l-0.385-1.008c-0.215-0.552-0.4-1.043-0.415-1.087l-0.025-0.080h-0.185c-0.168 0-0.185 0.005-0.207 0.055zM13.447 21.335c0.098 0.265 0.178 0.49 0.178 0.5 0 0.008-0.17 0.015-0.377 0.015-0.293 0-0.375-0.008-0.367-0.032 0.11-0.315 0.357-0.968 0.37-0.968 0.010 0 0.098 0.218 0.197 0.485z"></path>
<path fill="#fff" style="fill: var(--color1, #fff)" d="M14.55 21.56v1.090h0.325v-0.87l0.345-0.010c0.3-0.008 0.357-0.015 0.453-0.067 0.23-0.12 0.31-0.267 0.313-0.578 0.002-0.192-0.005-0.225-0.075-0.348-0.057-0.105-0.107-0.155-0.213-0.212l-0.135-0.078-1.012-0.015v1.087zM15.47 20.795c0.242 0.125 0.24 0.535-0.002 0.663-0.065 0.032-0.168 0.052-0.342 0.060l-0.25 0.015v-0.815l0.252 0.015c0.172 0.010 0.283 0.030 0.342 0.063z"></path>
<path fill="#fff" style="fill: var(--color1, #fff)" d="M16.050 20.6v0.125h0.775v1.925h0.325v-1.925h0.775v-0.25h-1.875v0.125z"></path>
</symbol>
<symbol id="icon-checkmark" viewBox="0 0 32 32">
<path d="M27 4l-15 15-7-7-5 5 12 12 20-20z"></path>
</symbol>
<symbol id="icon-checkmark2" viewBox="0 0 32 32">
<path d="M12.42 28.678l-12.433-12.238 6.168-6.071 6.265 6.167 13.426-13.214 6.168 6.071-19.594 19.285zM3.372 16.441l9.048 8.905 16.208-15.953-2.782-2.739-13.426 13.214-6.265-6.167-2.782 2.739z"></path>
</symbol>
<symbol id="icon-arrow-right2" viewBox="0 0 32 32">
<path d="M19.414 27.414l10-10c0.781-0.781 0.781-2.047 0-2.828l-10-10c-0.781-0.781-2.047-0.781-2.828 0s-0.781 2.047 0 2.828l6.586 6.586h-19.172c-1.105 0-2 0.895-2 2s0.895 2 2 2h19.172l-6.586 6.586c-0.39 0.39-0.586 0.902-0.586 1.414s0.195 1.024 0.586 1.414c0.781 0.781 2.047 0.781 2.828 0z"></path>
</symbol>
<symbol id="icon-circle-right" viewBox="0 0 32 32">
<path d="M16 0c-8.837 0-16 7.163-16 16s7.163 16 16 16 16-7.163 16-16-7.163-16-16-16zM16 29c-7.18 0-13-5.82-13-13s5.82-13 13-13 13 5.82 13 13-5.82 13-13 13z"></path>
<path d="M11.086 22.086l2.829 2.829 8.914-8.914-8.914-8.914-2.828 2.828 6.086 6.086z"></path>
</symbol>
<symbol id="icon-mail" viewBox="0 0 32 32">
<path d="M26.666 0h-21.332c-2.934 0-5.334 2.4-5.334 5.333v21.333c0 2.934 2.4 5.334 5.334 5.334h21.332c2.936 0 5.334-2.4 5.334-5.334v-21.333c0-2.934-2.398-5.333-5.334-5.333zM8 8h16c0.286 0 0.563 0.061 0.817 0.177l-8.817 10.286-8.817-10.287c0.254-0.116 0.531-0.177 0.817-0.177zM6 22v-12c0-0.042 0.002-0.084 0.004-0.125l5.864 6.842-5.8 5.8c-0.045-0.167-0.069-0.34-0.069-0.517zM24 24h-16c-0.177 0-0.35-0.024-0.517-0.069l5.691-5.691 2.826 3.297 2.826-3.297 5.691 5.691c-0.167 0.045-0.34 0.069-0.517 0.069zM26 22c0 0.177-0.024 0.35-0.069 0.517l-5.8-5.8 5.864-6.842c0.003 0.041 0.004 0.083 0.004 0.125v12z"></path>
</symbol>
<symbol id="icon-mail4" viewBox="0 0 32 32">
<path d="M16 0c-8.837 0-16 7.163-16 16s7.163 16 16 16 16-7.163 16-16-7.163-16-16-16zM8 8h16c0.286 0 0.563 0.061 0.817 0.177l-8.817 10.286-8.817-10.287c0.254-0.116 0.531-0.177 0.817-0.177zM6 22v-12c0-0.042 0.002-0.084 0.004-0.125l5.864 6.842-5.8 5.8c-0.045-0.167-0.069-0.34-0.069-0.517zM24 24h-16c-0.177 0-0.35-0.024-0.517-0.069l5.691-5.691 2.826 3.297 2.826-3.297 5.691 5.691c-0.167 0.045-0.34 0.069-0.517 0.069zM26 22c0 0.177-0.024 0.35-0.069 0.517l-5.8-5.8 5.865-6.842c0.003 0.041 0.004 0.083 0.004 0.125v12z"></path>
</symbol>
<symbol id="icon-instagram" viewBox="0 0 32 32">
<path d="M16 2.881c4.275 0 4.781 0.019 6.462 0.094 1.563 0.069 2.406 0.331 2.969 0.55 0.744 0.288 1.281 0.638 1.837 1.194 0.563 0.563 0.906 1.094 1.2 1.838 0.219 0.563 0.481 1.412 0.55 2.969 0.075 1.688 0.094 2.194 0.094 6.463s-0.019 4.781-0.094 6.463c-0.069 1.563-0.331 2.406-0.55 2.969-0.288 0.744-0.637 1.281-1.194 1.837-0.563 0.563-1.094 0.906-1.837 1.2-0.563 0.219-1.413 0.481-2.969 0.55-1.688 0.075-2.194 0.094-6.463 0.094s-4.781-0.019-6.463-0.094c-1.563-0.069-2.406-0.331-2.969-0.55-0.744-0.288-1.281-0.637-1.838-1.194-0.563-0.563-0.906-1.094-1.2-1.837-0.219-0.563-0.481-1.413-0.55-2.969-0.075-1.688-0.094-2.194-0.094-6.463s0.019-4.781 0.094-6.463c0.069-1.563 0.331-2.406 0.55-2.969 0.288-0.744 0.638-1.281 1.194-1.838 0.563-0.563 1.094-0.906 1.838-1.2 0.563-0.219 1.412-0.481 2.969-0.55 1.681-0.075 2.188-0.094 6.463-0.094zM16 0c-4.344 0-4.887 0.019-6.594 0.094-1.7 0.075-2.869 0.35-3.881 0.744-1.056 0.412-1.95 0.956-2.837 1.85-0.894 0.888-1.438 1.781-1.85 2.831-0.394 1.019-0.669 2.181-0.744 3.881-0.075 1.713-0.094 2.256-0.094 6.6s0.019 4.887 0.094 6.594c0.075 1.7 0.35 2.869 0.744 3.881 0.413 1.056 0.956 1.95 1.85 2.837 0.887 0.887 1.781 1.438 2.831 1.844 1.019 0.394 2.181 0.669 3.881 0.744 1.706 0.075 2.25 0.094 6.594 0.094s4.888-0.019 6.594-0.094c1.7-0.075 2.869-0.35 3.881-0.744 1.050-0.406 1.944-0.956 2.831-1.844s1.438-1.781 1.844-2.831c0.394-1.019 0.669-2.181 0.744-3.881 0.075-1.706 0.094-2.25 0.094-6.594s-0.019-4.887-0.094-6.594c-0.075-1.7-0.35-2.869-0.744-3.881-0.394-1.063-0.938-1.956-1.831-2.844-0.887-0.887-1.781-1.438-2.831-1.844-1.019-0.394-2.181-0.669-3.881-0.744-1.712-0.081-2.256-0.1-6.6-0.1v0z"></path>
<path d="M16 7.781c-4.537 0-8.219 3.681-8.219 8.219s3.681 8.219 8.219 8.219 8.219-3.681 8.219-8.219c0-4.537-3.681-8.219-8.219-8.219zM16 21.331c-2.944 0-5.331-2.387-5.331-5.331s2.387-5.331 5.331-5.331c2.944 0 5.331 2.387 5.331 5.331s-2.387 5.331-5.331 5.331z"></path>
<path d="M26.462 7.456c0 1.060-0.859 1.919-1.919 1.919s-1.919-0.859-1.919-1.919c0-1.060 0.859-1.919 1.919-1.919s1.919 0.859 1.919 1.919z"></path>
</symbol>
<symbol id="icon-whatsapp" viewBox="0 0 32 32">
<path d="M27.281 4.65c-2.994-3-6.975-4.65-11.219-4.65-8.738 0-15.85 7.112-15.85 15.856 0 2.794 0.731 5.525 2.119 7.925l-2.25 8.219 8.406-2.206c2.319 1.262 4.925 1.931 7.575 1.931h0.006c0 0 0 0 0 0 8.738 0 15.856-7.113 15.856-15.856 0-4.238-1.65-8.219-4.644-11.219zM16.069 29.050v0c-2.369 0-4.688-0.637-6.713-1.837l-0.481-0.288-4.987 1.306 1.331-4.863-0.313-0.5c-1.325-2.094-2.019-4.519-2.019-7.012 0-7.269 5.912-13.181 13.188-13.181 3.519 0 6.831 1.375 9.319 3.862 2.488 2.494 3.856 5.8 3.856 9.325-0.006 7.275-5.919 13.188-13.181 13.188zM23.294 19.175c-0.394-0.2-2.344-1.156-2.706-1.288s-0.625-0.2-0.894 0.2c-0.262 0.394-1.025 1.288-1.256 1.556-0.231 0.262-0.462 0.3-0.856 0.1s-1.675-0.619-3.188-1.969c-1.175-1.050-1.975-2.35-2.206-2.744s-0.025-0.613 0.175-0.806c0.181-0.175 0.394-0.463 0.594-0.694s0.262-0.394 0.394-0.662c0.131-0.262 0.069-0.494-0.031-0.694s-0.894-2.15-1.219-2.944c-0.319-0.775-0.65-0.669-0.894-0.681-0.231-0.012-0.494-0.012-0.756-0.012s-0.694 0.1-1.056 0.494c-0.363 0.394-1.387 1.356-1.387 3.306s1.419 3.831 1.619 4.1c0.2 0.262 2.794 4.269 6.769 5.981 0.944 0.406 1.681 0.65 2.256 0.837 0.95 0.3 1.813 0.256 2.494 0.156 0.762-0.113 2.344-0.956 2.675-1.881s0.331-1.719 0.231-1.881c-0.094-0.175-0.356-0.275-0.756-0.475z"></path>
</symbol>
</defs>
</svg>
